<svg viewBox="-300 -300 600 600" xmlns="http://www.w3.org/2000/svg" fill="none" stroke="white" stroke-width="1.5">
  <rect width="100%" height="100%" fill="black"/>
  
  <!-- Central stillpoint -->
  <circle cx="0" cy="0" r="2" fill="white"/>

  <!-- Trinitized triangle -->
  <polygon points="0,-80 69.28,40 -69.28,40" stroke="white" fill="none"/>

  <!-- Golden spirals -->
  <g stroke="gold" stroke-width="0.8">
    <!-- Golden ratio spiral arms -->
    <path d="M0 0 
             Q 8,-12 13,-21 
             T 26,-42
             T 47,-68
             T 74,-100
             T 110,-134" />
    <path d="M0 0 
             Q -8,-12 -13,-21 
             T -26,-42
             T -47,-68
             T -74,-100
             T -110,-134" />
    <path d="M0 0 
             Q 8,12 13,21 
             T 26,42
             T 47,68
             T 74,100
             T 110,134" />
    <path d="M0 0 
             Q -8,12 -13,21 
             T -26,42
             T -47,68
             T -74,100
             T -110,134" />
  </g>

  <!-- Dodecahedral star pattern (12-fold symmetry) -->
  <g stroke="cyan" stroke-opacity="0.7">
    <g transform="rotate(0)">
      <line x1="0" y1="0" x2="0" y2="-150"/>
    </g>
    <g transform="rotate(30)">
      <line x1="0" y1="0" x2="0" y2="-150"/>
    </g>
    <g transform="rotate(60)">
      <line x1="0" y1="0" x2="0" y2="-150"/>
    </g>
    <g transform="rotate(90)">
      <line x1="0" y1="0" x2="0" y2="-150"/>
    </g>
    <g transform="rotate(120)">
      <line x1="0" y1="0" x2="0" y2="-150"/>
    </g>
    <g transform="rotate(150)">
      <line x1="0" y1="0" x2="0" y2="-150"/>
    </g>
    <g transform="rotate(180)">
      <line x1="0" y1="0" x2="0" y2="-150"/>
    </g>
    <g transform="rotate(210)">
      <line x1="0" y1="0" x2="0" y2="-150"/>
    </g>
    <g transform="rotate(240)">
      <line x1="0" y1="0" x2="0" y2="-150"/>
    </g>
    <g transform="rotate(270)">
      <line x1="0" y1="0" x2="0" y2="-150"/>
    </g>
    <g transform="rotate(300)">
      <line x1="0" y1="0" x2="0" y2="-150"/>
    </g>
    <g transform="rotate(330)">
      <line x1="0" y1="0" x2="0" y2="-150"/>
    </g>
  </g>

  <!-- Enfolding vesica -->
  <ellipse cx="0" cy="0" rx="180" ry="60" stroke="violet" stroke-opacity="0.6" fill="none"/>
</svg>