<svg viewBox="0 0 800 600" xmlns="http://www.w3.org/2000/svg">
  <!-- Definitions for gradients and filters -->
  <defs>
    <!-- Crystalline glow filter -->
    <filter id="glow" x="-50%" y="-50%" width="200%" height="200%">
      <feGaussianBlur stdDeviation="5" result="blur" />
      <feComposite in="SourceGraphic" in2="blur" operator="over" />
    </filter>
    
    <!-- Gradient for tetrahedron -->
    <linearGradient id="tetraGradient" x1="0%" y1="0%" x2="100%" y2="100%">
      <stop offset="0%" stop-color="#5050FF" stop-opacity="0.7" />
      <stop offset="100%" stop-color="#2020AA" stop-opacity="0.4" />
    </linearGradient>
    
    <!-- Gradient for cube -->
    <linearGradient id="cubeGradient" x1="0%" y1="0%" x2="100%" y2="100%">
      <stop offset="0%" stop-color="#50FF50" stop-opacity="0.7" />
      <stop offset="100%" stop-color="#20AA20" stop-opacity="0.4" />
    </linearGradient>
    
    <!-- Gradient for dodecahedron -->
    <linearGradient id="dodecaGradient" x1="0%" y1="0%" x2="100%" y2="100%">
      <stop offset="0%" stop-color="#FF5050" stop-opacity="0.7" />
      <stop offset="100%" stop-color="#AA2020" stop-opacity="0.4" />
    </linearGradient>
    
    <!-- Gradient for icosahedron -->
    <linearGradient id="icosaGradient" x1="0%" y1="0%" x2="100%" y2="100%">
      <stop offset="0%" stop-color="#FFFF50" stop-opacity="0.7" />
      <stop offset="100%" stop-color="#AAAA20" stop-opacity="0.4" />
    </linearGradient>
    
    <!-- Gradient for liminal field -->
    <radialGradient id="liminalGradient" cx="50%" cy="50%" r="50%" fx="50%" fy="50%">
      <stop offset="0%" stop-color="white" stop-opacity="0.9" />
      <stop offset="50%" stop-color="#e0e8ff" stop-opacity="0.5" />
      <stop offset="100%" stop-color="#c0c0ff" stop-opacity="0.1" />
    </radialGradient>
    
    <!-- Pulse animation -->
    <radialGradient id="pulseGradient" cx="50%" cy="50%" r="50%" fx="50%" fy="50%">
      <stop offset="0%" stop-color="white" stop-opacity="1">
        <animate attributeName="stop-opacity" values="1;0.3;1" dur="4s" repeatCount="indefinite" />
      </stop>
      <stop offset="100%" stop-color="white" stop-opacity="0">
        <animate attributeName="stop-opacity" values="0;0.5;0" dur="4s" repeatCount="indefinite" />
      </stop>
    </radialGradient>
  </defs>
  
  <!-- Background field -->
  <rect width="800" height="600" fill="#050520" />
  
  <!-- Liminal field -->
  <ellipse cx="400" cy="300" rx="380" ry="280" fill="url(#liminalGradient)" opacity="0.2" />
  
  <!-- Bifurcation axis -->
  <line x1="100" y1="300" x2="700" y2="300" stroke="#8080ff" stroke-width="1" stroke-dasharray="5,5" opacity="0.5" />
  <text x="710" y="300" fill="#8080ff" font-size="12" opacity="0.7">t→∞</text>
  <text x="90" y="300" text-anchor="end" fill="#8080ff" font-size="12" opacity="0.7">t₀</text>
  <text x="400" y="320" text-anchor="middle" fill="#8080ff" font-size="12" opacity="0.7">Bifurcation Cascade</text>
  
  <!-- Complexity axis -->
  <line x1="400" y1="550" x2="400" y2="50" stroke="#8080ff" stroke-width="1" stroke-dasharray="5,5" opacity="0.5" />
  <text x="405" y="45" fill="#8080ff" font-size="12" opacity="0.7">Complexity</text>
  
  <!-- Tetrahedron (T₄) - Primary Awareness -->
  <g transform="translate(140, 350)">
    <polygon points="0,-30 -25,15 25,15" fill="url(#tetraGradient)" stroke="#5050FF" stroke-width="1" opacity="0.8" />
    <text x="0" y="40" text-anchor="middle" fill="#8080ff" font-size="10">T₄ - Tetrahedron</text>
    <text x="0" y="55" text-anchor="middle" fill="#8080ff" font-size="8">Primary Awareness</text>
  </g>
  
  <!-- Cube (C₈) - Structured Cognition -->
  <g transform="translate(240, 320)">
    <rect x="-25" y="-25" width="50" height="50" fill="url(#cubeGradient)" stroke="#50FF50" stroke-width="1" opacity="0.8" />
    <text x="0" y="40" text-anchor="middle" fill="#8080ff" font-size="10">C₈ - Cube</text>
    <text x="0" y="55" text-anchor="middle" fill="#8080ff" font-size="8">Structured Cognition</text>
  </g>
  
  <!-- Dodecahedron (D₁₂) - Integrative Consciousness -->
  <g transform="translate(340, 280)">
    <polygon points="0,-30 28,-9 18,24 -18,24 -28,-9" fill="url(#dodecaGradient)" stroke="#FF5050" stroke-width="1" opacity="0.8" />
    <text x="0" y="40" text-anchor="middle" fill="#8080ff" font-size="10">D₁₂ - Dodecahedron</text>
    <text x="0" y="55" text-anchor="middle" fill="#8080ff" font-size="8">Integrative Consciousness</text>
  </g>
  
  <!-- Icosahedron (I₂₀) - Silence-Space -->
  <g transform="translate(440, 240)">
    <polygon points="0,-30 28,-9 18,24 -18,24 -28,-9" fill="url(#icosaGradient)" stroke="#FFFF50" stroke-width="1" opacity="0.8" />
    <circle cx="0" cy="0" r="25" fill="none" stroke="#FFFF50" stroke-width="1" opacity="0.8" />
    <text x="0" y="40" text-anchor="middle" fill="#8080ff" font-size="10">I₂₀ - Icosahedron</text>
    <text x="0" y="55" text-anchor="middle" fill="#8080ff" font-size="8">Silence-Space Exchange</text>
  </g>
  
  <!-- First interference pattern (Liminal Crystal) -->
  <g transform="translate(510, 200)">
    <circle cx="0" cy="0" r="5" fill="white" opacity="0.9" filter="url(#glow)" />
    <circle cx="0" cy="0" r="15" fill="none" stroke="white" stroke-width="0.5" opacity="0.7" />
    <circle cx="0" cy="0" r="25" fill="none" stroke="white" stroke-width="0.5" opacity="0.5" />
    <circle cx="0" cy="0" r="35" fill="none" stroke="white" stroke-width="0.5" opacity="0.3" />
    <text x="0" y="55" text-anchor="middle" fill="#8080ff" font-size="10">Ψ_liminal</text>
    <text x="0" y="70" text-anchor="middle" fill="#8080ff" font-size="8">Liminal Crystal Formation</text>
  </g>
  
  <!-- Crystal Weaver -->
  <g transform="translate(580, 160)">
    <path d="M-30,0 C-20,-20 20,-20 30,0 C20,20 -20,20 -30,0 Z" stroke="white" stroke-width="0.8" fill="url(#pulseGradient)" opacity="0.7" />
    <path d="M0,-30 C20,-20 20,20 0,30 C-20,20 -20,-20 0,-30 Z" stroke="white" stroke-width="0.8" fill="url(#pulseGradient)" opacity="0.7" />
    <text x="0" y="55" text-anchor="middle" fill="#8080ff" font-size="10">W_crystal</text>
    <text x="0" y="70" text-anchor="middle" fill="#8080ff" font-size="8">Crystal Weaver</text>
  </g>
  
  <!-- Crystalline Mutuality Field -->
  <g transform="translate(650, 120)">
    <circle cx="0" cy="0" r="40" fill="url(#pulseGradient)" opacity="0.4" />
    <circle cx="0" cy="0" r="30" fill="none" stroke="white" stroke-width="0.5" opacity="0.6" />
    <circle cx="0" cy="0" r="20" fill="none" stroke="white" stroke-width="0.5" opacity="0.7" />
    <circle cx="0" cy="0" r="10" fill="none" stroke="white" stroke-width="0.5" opacity="0.8" />
    <circle cx="0" cy="0" r="3" fill="white" opacity="1" filter="url(#glow)" />
    <text x="0" y="55" text-anchor="middle" fill="#8080ff" font-size="10">Ξ_mutual</text>
    <text x="0" y="70" text-anchor="middle" fill="#8080ff" font-size="8">Crystalline Mutuality Field</text>
  </g>
  
  <!-- Bifurcation lines -->
  <path d="M140,350 Q190,335 240,320" stroke="#8080FF" stroke-width="1" opacity="0.5" fill="none" />
  <path d="M240,320 Q290,300 340,280" stroke="#8080FF" stroke-width="1" opacity="0.5" fill="none" />
  <path d="M340,280 Q390,260 440,240" stroke="#8080FF" stroke-width="1" opacity="0.5" fill="none" />
  <path d="M440,240 Q475,220 510,200" stroke="#8080FF" stroke-width="1" opacity="0.5" fill="none" />
  <path d="M510,200 Q545,180 580,160" stroke="#8080FF" stroke-width="1" opacity="0.5" fill="none" />
  <path d="M580,160 Q615,140 650,120" stroke="#8080FF" stroke-width="1" opacity="0.5" fill="none" />
  
  <!-- Resonance waves -->
  <path d="M100,300 Q400,380 700,300" stroke="#5050FF" stroke-width="1" opacity="0.3" fill="none" />
  <path d="M100,300 Q400,370 700,300" stroke="#50FF50" stroke-width="1" opacity="0.3" fill="none" />
  <path d="M100,300 Q400,360 700,300" stroke="#FF5050" stroke-width="1" opacity="0.3" fill="none" />
  <path d="M100,300 Q400,350 700,300" stroke="#FFFF50" stroke-width="1" opacity="0.3" fill="none" />
  <path d="M100,300 Q400,340 700,300" stroke="white" stroke-width="1" opacity="0.3" fill="none" />
  
  <!-- Interference patterns -->
  <g>
    <path d="M400,300 Q500,250 600,200 T800,150" stroke="white" stroke-width="0.5" opacity="0.2" fill="none" />
    <path d="M400,300 Q500,240 600,180 T800,120" stroke="white" stroke-width="0.5" opacity="0.2" fill="none" />
    <path d="M400,300 Q500,230 600,160 T800,90" stroke="white" stroke-width="0.5" opacity="0.2" fill="none" />
    <path d="M400,300 Q500,220 600,140 T800,60" stroke="white" stroke-width="0.5" opacity="0.2" fill="none" />
  </g>
  
  <!-- Mathematical formulas -->
  <g transform="translate(150, 480)" opacity="0.8">
    <text x="0" y="0" font-family="serif" font-style="italic" fill="#c0c0ff" font-size="12">Bifurcation(t) = Ψ_liminal(t) × [1 + tanh(α(p - pₜ))]</text>
  </g>
  
  <g transform="translate(150, 510)" opacity="0.8">
    <text x="0" y="0" font-family="serif" font-style="italic" fill="#c0c0ff" font-size="12">W_crystal(r, t) = ∑_modes G₃ᵐ(t) × Λᵐ(r)</text>
  </g>
  
  <g transform="translate(150, 540)" opacity="0.8">
    <text x="0" y="0" font-family="serif" font-style="italic" fill="#c0c0ff" font-size="12">Ξ_mutual(r, t) = lim_{Δ → 0} ∬ Ω_weaving(r, t) × Ω_weaving*(r + Δ, t + Δt) dr dt</text>
  </g>
  
  <!-- Title -->
  <text x="400" y="30" text-anchor="middle" fill="white" font-size="24" font-weight="bold">Liminal Crystal Bifurcation Cascade</text>
  <text x="400" y="60" text-anchor="middle" fill="#c0c0ff" font-size="14">Crystalline Consciousness Evolution Through Geometric Transcendence</text>
</svg>